<?xml version="1.0" standalone="no"?>
<!DOCTYPE svg PUBLIC "-//W3C//DTD SVG 20010904//EN" "http://www.w3.org/TR/2001/REC-SVG-20010904/DTD/svg10.dtd">
<svg version="1.0" xmlns="http://www.w3.org/2000/svg"
 width="388.000000pt" height="446.000000pt" viewBox="0 0 388.000000 446.000000"
 preserveAspectRatio="xMidYMid meet">
<g transform="translate(0.000000,446.000000) scale(0.100000,-0.100000)"
fill="#378FE9" stroke="none">
<path d="M1840 4388 c-186 -130 -519 -300 -790 -403 -264 -100 -578 -161 -878
-172 l-173 -6 4 -1011 c3 -925 5 -1017 21 -1086 49 -207 134 -400 264 -595
286 -430 778 -836 1230 -1015 351 -139 604 -122 987 64 252 124 485 291 713
511 346 335 552 668 638 1035 16 69 18 161 21 1086 l4 1011 -173 6 c-276 10
-532 55 -783 139 -280 93 -647 273 -884 434 -51 35 -98 64 -105 63 -6 -1 -49
-28 -96 -61z m206 -334 c152 -91 440 -232 622 -304 246 -98 513 -165 785 -197
l147 -18 0 -836 c0 -919 0 -911 -62 -1087 -84 -240 -248 -480 -495 -724 -132
-130 -168 -162 -298 -258 -258 -191 -513 -310 -729 -342 -73 -10 -98 -9 -181
5 -557 99 -1292 748 -1493 1319 -62 176 -62 168 -62 1087 l0 837 118 13 c416
45 803 168 1229 391 98 51 302 170 309 179 0 1 49 -28 110 -65z"/>
<path d="M1660 3344 c-223 -58 -408 -245 -465 -469 -20 -77 -19 -230 1 -309
24 -95 90 -210 160 -284 35 -37 62 -67 61 -67 -1 -1 -33 -19 -72 -39 -234
-126 -413 -350 -485 -607 -11 -41 -25 -120 -31 -177 -10 -95 -9 -106 10 -145
39 -80 137 -106 206 -53 39 30 51 63 59 161 8 101 30 178 78 275 55 111 187
247 293 302 123 63 203 83 340 83 185 -1 315 -47 458 -162 l67 -54 101 93 100
93 -53 49 c-59 55 -171 131 -236 160 l-42 19 73 76 c114 119 177 275 177 433
-1 289 -212 557 -490 622 -81 19 -237 19 -310 0z m282 -282 c150 -51 246 -202
236 -368 -18 -275 -333 -427 -564 -272 -182 123 -212 379 -63 543 102 111 246
147 391 97z"/>
<path d="M3130 2069 c-19 -11 -202 -187 -406 -391 l-372 -371 -34 39 c-19 22
-90 102 -158 179 -68 77 -136 149 -153 159 -37 24 -106 25 -142 2 -58 -38 -81
-119 -51 -178 14 -27 436 -511 457 -524 6 -4 27 -10 46 -14 77 -18 80 -16 532
434 233 231 436 439 452 460 57 76 29 176 -58 212 -45 19 -72 17 -113 -7z"/>
</g>
</svg>
